<?xml version="1.0" encoding="UTF-8" standalone="no"?>
<!-- Created with Inkscape (http://www.inkscape.org/) -->
<svg
   xmlns:svg="http://www.w3.org/2000/svg"
   xmlns="http://www.w3.org/2000/svg"
   version="1.0"
   width="744.09448"
   height="538.22833"
   id="svg2231">
  <defs
     id="defs2233">
    <clipPath
       id="clp19">
      <path
         d="M 0.06,737.1 L 581.22,737.1 L 581.22,0.06 L 0.06,0.06 L 0.06,737.1 z "
         id="path10161" />
    </clipPath>
    <clipPath
       id="clp16">
      <path
         d="M 0.06,737.1 L 581.22,737.1 L 581.22,0.06 L 0.06,0.06 L 0.06,737.1 z "
         id="path10105" />
    </clipPath>
    <clipPath
       id="clp63">
      <path
         d="M 0.06,737.1 L 581.22,737.1 L 581.22,0.06 L 0.06,0.06 L 0.06,737.1 z "
         id="path11432" />
    </clipPath>
  </defs>
  <g
     transform="translate(-1612.2379,211.58851)"
     id="layer1">
    <g
       transform="translate(17.716541,17.72616)"
       id="g4178">
      <path
         d="M 1940.4879,-58.971078 L 1963.2576,-195.36457 C 1881.2143,-193.85545 1814.9605,-126.8848 1814.9605,-44.444965 C 1814.9605,-18.788722 1821.9967,5.9244517 1833.6555,28.562339 L 1940.4879,-58.971078 z M 1965.6348,-15.204369 L 1836.3909,33.27852 C 1863.2546,78.365759 1913.4163,106.28582 1965.8045,106.28582 C 2018.4566,106.28582 2067.9584,78.365759 2095.1426,33.27852 L 1965.6348,-15.204369 z M 1990.9702,-58.971078 L 2097.9535,28.562339 C 2109.9516,6.1130435 2116.837,-18.788722 2116.837,-44.444965 C 2116.837,-127.63944 2050.8665,-192.91221 1968.5588,-195.55327 L 1990.9702,-58.971078 z M 2132.9292,-44.444965 C 2132.9292,47.427283 2057.6389,122.69846 1965.8045,122.69846 C 1874.0455,122.69846 1798.6798,47.427283 1798.6798,-44.444965 C 1798.6798,-136.31732 1873.9701,-211.58851 1965.8045,-211.58851 C 2057.6954,-211.58851 2132.9292,-136.31732 2132.9292,-44.444965"
         style="fill:#ffffff;fill-rule:evenodd;stroke:none"
         id="path9939" />
      <path
         d="M 1629.5555,212.87278 L 1626.575,279.65467 C 1626.2922,286.06889 1630.9895,287.38937 1636.7997,287.76666 L 1636.7997,290.03043 C 1632.6874,289.84184 1628.5746,289.46443 1624.4434,289.46443 C 1620.3305,289.46443 1616.3502,289.84184 1612.2379,290.03043 L 1612.2379,287.76666 C 1618.067,287.38937 1622.1793,286.06889 1622.4627,279.65467 L 1625.594,216.45718 C 1626.0094,209.66577 1621.1795,208.72248 1615.3693,208.53383 L 1615.3693,206.08137 C 1618.916,206.08137 1622.3307,206.27012 1625.8768,206.27012 C 1628.9899,206.27012 1631.9704,206.08137 1634.951,205.70413 L 1658.5324,272.29743 L 1682.5287,205.70413 L 1685.2264,206.08137 C 1687.358,206.08137 1689.6404,206.27012 1691.9045,206.27012 C 1695.3192,206.27012 1698.7334,206.08137 1702.1292,206.08137 L 1702.1292,208.53383 C 1696.319,208.72248 1691.7725,209.85448 1691.9045,216.45718 L 1693.3379,279.65467 C 1693.6213,286.06889 1697.5827,287.38937 1703.6952,287.76666 L 1703.6952,290.03043 L 1698.4506,289.65319 C 1695.3192,289.46443 1692.3381,289.27584 1689.2067,289.27584 C 1686.0942,289.27584 1682.9623,289.46443 1679.8309,289.65319 L 1674.7183,290.03043 L 1674.7183,287.76666 C 1680.6988,287.38937 1685.0939,286.06889 1684.943,279.65467 L 1683.9621,212.87278 L 1657.2493,287.38937 L 1655.7027,287.38937 L 1629.5555,212.87278"
         style="fill:#231f20;fill-rule:nonzero;stroke:none"
         id="path9941" />
      <path
         d="M 1771.8727,239.09507 L 1771.8727,283.61642 C 1771.8727,287.76666 1766.0436,287.95537 1763.0631,288.14396 L 1763.0631,290.03043 C 1767.3262,289.84184 1771.571,289.46443 1775.8347,289.46443 C 1780.0979,289.46443 1784.3616,289.84184 1788.6247,290.03043 L 1788.6247,288.14396 C 1783.7954,287.76666 1779.6831,287.20072 1779.6831,281.54114 L 1779.6831,256.45089 C 1779.6831,249.28224 1780.8149,234.94483 1790.474,234.19024 C 1792.1714,234.0016 1794.7372,234.94483 1794.8691,237.02001 C 1794.8691,238.15184 1794.3035,239.09507 1794.3035,240.22696 C 1794.3035,242.67942 1796.5671,244.37725 1798.8495,244.5659 C 1802.2642,244.5659 1803.8113,241.54754 1803.8113,238.52924 C 1803.8113,233.24701 1798.982,229.28525 1793.7374,229.28525 C 1786.6251,229.28525 1781.0977,234.19024 1779.0981,240.79295 C 1779.0981,236.6426 1778.6833,232.49236 1778.2491,228.53066 C 1773.2878,229.85125 1768.1752,231.17172 1763.0631,231.36054 L 1763.0631,233.24701 C 1768.1752,233.4356 1771.8727,233.24701 1771.8727,239.09507"
         style="fill:#231f20;fill-rule:nonzero;stroke:none"
         id="path9949" />
      <path
         d="M 1842.8805,228.15342 L 1839.5983,234.37884 C 1836.3344,231.36054 1832.6557,229.28525 1827.8264,229.28525 C 1811.4892,229.28525 1803.8113,245.50913 1803.8113,260.03519 C 1803.8113,274.3726 1810.4894,291.16237 1827.2414,291.16237 C 1839.1829,291.16237 1845.1446,281.1639 1846.2763,270.59949 L 1841.447,270.59949 C 1840.0319,278.52284 1837.1833,287.20072 1827.5436,287.20072 C 1814.0361,287.20072 1812.6209,270.03366 1812.6209,260.03519 C 1812.6209,250.60272 1814.9039,232.30377 1827.6756,232.30377 C 1836.6172,232.30377 1840.8809,240.03831 1842.4468,247.58436 L 1844.8612,247.58436 L 1844.8612,228.15342 L 1842.8805,228.15342"
         style="fill:#231f20;fill-rule:nonzero;stroke:none"
         id="path9951" />
      <path
         d="M 1895.5514,270.4109 L 1900.5321,270.4109 C 1898.6828,283.05037 1891.3066,291.16237 1878.2332,291.16237 C 1861.4812,291.16237 1854.8032,275.50443 1854.8032,260.97848 C 1854.8032,246.45237 1861.1984,229.28525 1878.2332,229.28525 C 1894.5705,229.28525 1900.3807,244.00001 1900.2487,258.14866 L 1862.4622,258.14866 C 1862.7644,269.84485 1864.3109,287.20072 1879.6484,287.20072 C 1889.4584,287.20072 1894.2877,279.08884 1895.5514,270.4109 z M 1892.5709,253.80978 L 1892.5709,252.11195 C 1891.7219,243.24542 1888.8922,232.49236 1877.9504,232.49236 C 1867.5748,232.49236 1863.33,245.13189 1862.8964,253.80978 L 1892.5709,253.80978"
         style="fill:#231f20;fill-rule:nonzero;stroke:none"
         id="path9953" />
      <path
         d="M 1961.7487,286.25749 L 1961.7487,287.95537 C 1956.6361,288.7099 1951.8068,289.27584 1946.8266,290.78507 C 1946.1096,287.20072 1945.5435,283.61642 1945.4115,279.84348 C 1942.431,286.44613 1936.7527,290.78507 1929.3576,290.78507 C 1913.454,290.78507 1907.493,273.24066 1907.493,260.03519 C 1907.493,246.82972 1913.6054,229.66266 1929.3576,229.66266 C 1937.0355,229.66266 1941.4312,234.37884 1944.9779,240.79295 L 1944.9779,216.45718 C 1944.9779,210.60907 1941.582,209.85448 1936.1865,209.85448 L 1936.1865,208.1566 L 1937.7336,207.77925 C 1942.8457,207.21336 1947.8264,206.64736 1952.7877,205.13813 L 1952.7877,277.5796 C 1952.7877,284.18226 1955.0707,286.25749 1961.7487,286.25749 z M 1944.9779,260.41248 C 1944.9779,250.41407 1943.2799,233.05836 1929.9232,233.05836 C 1917.1516,233.05836 1915.869,250.41407 1915.869,259.6579 C 1915.869,269.09042 1917.0007,287.38937 1930.3574,287.38937 C 1943.8455,287.38937 1944.9779,270.22225 1944.9779,260.41248"
         style="fill:#231f20;fill-rule:nonzero;stroke:none"
         id="path9955" />
      <path
         d="M 2009.0431,270.4109 L 2014.0043,270.4109 C 2012.8726,283.05037 2004.3457,291.16237 1991.706,291.16237 C 1975.086,291.16237 1968.1251,275.50443 1968.1251,260.97848 C 1968.1251,246.45237 1974.6712,229.28525 1991.706,229.28525 C 2008.1752,229.28525 2013.8535,244.00001 2013.8535,258.14866 L 1976.0858,258.14866 C 1975.935,269.84485 1978.0666,287.20072 1993.1212,287.20072 C 2002.7798,287.20072 2008.0433,279.08884 2009.0431,270.4109 z M 2006.1945,253.80978 C 2005.3455,244.5659 2003.0626,232.49236 1991.5552,232.49236 C 1981.1985,232.49236 1977.6518,244.18866 1976.52,252.67784 L 1976.3692,253.80978 L 2006.1945,253.80978"
         style="fill:#231f20;fill-rule:nonzero;stroke:none"
         id="path9957" />
      <path
         d="M 2024.2291,291.16237 L 2027.0588,285.88014 C 2031.1905,289.27584 2036.586,290.78507 2041.8301,290.78507 C 2051.9229,290.78507 2061.582,284.18226 2061.582,273.24066 C 2061.582,264.94007 2055.9032,260.78972 2048.6595,257.96002 L 2042.9813,255.69625 C 2037.8686,253.80978 2029.6246,250.9799 2029.6246,244.18866 C 2029.6246,237.39725 2035.02,232.68096 2041.8301,232.68096 C 2050.6403,232.68096 2054.187,239.84972 2055.0548,247.58436 L 2057.4692,247.58436 L 2057.4692,228.53066 L 2055.4696,228.53066 L 2053.7716,233.24701 C 2050.0741,230.98313 2045.9618,229.66266 2041.5473,229.66266 C 2032.0395,229.66266 2023.2293,235.88807 2023.2293,245.88648 C 2023.2293,265.88331 2055.0548,260.03519 2055.0548,275.12713 C 2055.0548,282.48454 2048.5087,287.38937 2041.5473,287.38937 C 2031.1905,287.38937 2026.644,279.65467 2024.5125,270.59949 L 2021.9467,270.78825 L 2022.0975,291.16237 L 2024.2291,291.16237"
         style="fill:#231f20;fill-rule:nonzero;stroke:none"
         id="path9959" />
      <path
         d="M 2066.9775,257.58272 L 2089.6906,257.58272 L 2089.6906,253.62107 L 2066.9775,253.62107 L 2066.9775,257.58272 z "
         style="fill:#231f20;fill-rule:nonzero;stroke:none"
         id="path9961" />
      <path
         d="M 2198.8997,270.4109 L 2203.8804,270.4109 C 2202.748,282.67319 2194.0704,291.72831 2181.4495,291.16237 C 2164.962,290.21908 2158.0006,276.07037 2158.0006,260.97848 C 2158.0006,246.45237 2164.5467,229.28525 2181.4495,229.28525 C 2197.9187,229.28525 2203.729,244.00001 2203.729,258.33742 L 2165.8105,258.33742 C 2165.6785,269.84485 2167.9426,287.20072 2182.8647,287.20072 C 2192.8066,287.20072 2197.4851,279.08884 2198.8997,270.4109 z M 2195.9192,253.80978 C 2195.7872,244.5659 2192.5233,232.49236 2181.2987,232.49236 C 2171.0739,232.49236 2167.3764,244.37725 2166.2446,252.67784 L 2166.0938,253.80978 L 2195.9192,253.80978"
         style="fill:#231f20;fill-rule:nonzero;stroke:none"
         id="path9963" />
      <path
         d="M 2218.3683,239.28372 L 2218.3683,281.72995 C 2218.3683,287.38937 2214.2371,287.76666 2209.2753,288.14396 L 2209.2753,290.21908 C 2213.671,289.84184 2217.9346,289.46443 2222.1978,289.46443 C 2226.4615,289.46443 2230.7252,289.84184 2235.1203,290.21908 L 2235.1203,288.14396 C 2230.291,287.76666 2226.0273,287.20072 2226.0273,281.72995 L 2226.0273,251.7346 C 2226.0273,242.86802 2230.5738,234.94483 2240.6666,234.94483 C 2250.3257,234.94483 2252.1557,243.43401 2252.1557,251.35731 L 2252.1557,283.61642 C 2252.1557,287.95537 2246.194,287.95537 2243.0815,288.14396 L 2243.0815,290.21908 C 2247.3263,289.84184 2251.5895,289.46443 2256.004,289.46443 C 2260.3997,289.46443 2264.6628,289.84184 2269.0585,290.21908 L 2269.0585,288.14396 C 2264.0972,287.76666 2259.9843,287.38937 2259.9843,281.72995 L 2259.9843,250.9799 C 2259.9843,239.84972 2254.438,229.66266 2241.7984,229.66266 C 2234.7055,229.66266 2229.2912,233.4356 2225.4617,239.28372 L 2225.4617,237.77454 C 2225.3297,234.37884 2225.0463,231.36054 2224.6127,228.15342 C 2219.7834,230.03989 2214.6708,231.17172 2209.5586,231.92642 L 2209.5586,233.81289 C 2214.5388,233.81289 2218.3683,233.62419 2218.3683,239.28372"
         style="fill:#231f20;fill-rule:nonzero;stroke:none"
         id="path9965" />
      <path
         d="M 2316.787,289.84184 L 2319.7675,272.86337 L 2317.768,272.86337 C 2314.9382,280.78672 2311.5235,287.01213 2302.4305,287.01213 L 2285.5465,287.01213 L 2320.8993,230.60589 L 2280.5659,230.60589 L 2277.8687,246.07513 L 2280.0002,246.07513 C 2282.698,238.90648 2285.5465,233.62419 2293.9225,233.62419 L 2310.1084,233.62419 L 2274.8876,289.84184 L 2316.787,289.84184"
         style="fill:#231f20;fill-rule:nonzero;stroke:none"
         id="path9973" />
      <path
         d="M 1751.8385,270.4109 L 1756.8186,270.4109 C 1755.668,283.05037 1747.16,291.16237 1734.5203,291.16237 C 1717.7495,291.16237 1711.0903,275.69313 1711.0903,260.97848 C 1711.0903,246.45237 1717.4661,229.28525 1734.5203,229.28525 C 1750.9895,229.28525 1756.6678,244.00001 1756.6678,258.14866 L 1718.9001,258.14866 C 1718.7493,269.84485 1720.8808,287.20072 1735.9349,287.20072 C 1745.4432,287.20072 1751.1215,279.08884 1751.8385,270.4109 z M 1749.0088,253.80978 C 1748.4238,244.5659 1745.726,232.49236 1734.2375,232.49236 C 1723.4277,232.49236 1720.3152,245.13189 1719.1829,253.80978 L 1749.0088,253.80978"
         style="fill:#231f20;fill-rule:nonzero;stroke:none"
         id="path9975" />
      <path
         d="M 2149.7189,265.88331 C 2149.7189,280.97531 2139.1925,289.84184 2120.9499,289.84184 L 2090.3133,289.84184 L 2090.3133,287.38937 C 2098.727,286.82337 2100.5758,285.5029 2100.5758,279.08884 L 2100.5758,216.83442 C 2100.5758,210.60907 2098.7459,209.09983 2090.3133,208.72248 L 2090.3133,206.27012 L 2121.8366,206.27012 C 2137.0603,206.27012 2145.6631,213.62742 2145.6631,226.45554 C 2145.6631,235.32213 2141.4749,241.35895 2132.363,245.32049 C 2143.0785,247.20696 2149.7189,255.13031 2149.7189,265.88331 z M 2118.1956,244.37725 C 2130.9673,244.37725 2136.6267,238.90648 2136.6267,226.83295 C 2136.6267,214.94795 2131.6837,209.66577 2120.6105,209.66577 L 2108.8764,209.66577 L 2108.8764,244.37725 L 2118.1956,244.37725 z M 2108.8764,279.27743 C 2108.8764,285.12549 2110.1967,286.25749 2117.4032,286.25749 L 2122.0251,286.25749 C 2133.6462,286.25749 2140.6636,278.71143 2140.6636,266.44931 C 2140.6636,253.80978 2134.6271,247.77295 2121.9686,247.77295 L 2108.8764,247.77295 L 2108.8764,279.27743"
         style="fill:#231f20;fill-rule:nonzero;stroke:none"
         id="path9977" />
      <path
         d="M 2132.9292,-44.444965 C 2132.9292,47.427283 2057.6389,122.69846 1965.8045,122.69846 C 1874.0455,122.69846 1798.6798,47.427283 1798.6798,-44.444965 C 1798.6798,-136.31732 1873.9701,-211.58851 1965.8045,-211.58851 C 2057.6954,-211.58851 2132.9292,-136.31732 2132.9292,-44.444965 z M 1928.7726,-25.768835 L 1928.5652,-25.39143 L 1929.0931,-25.580022 L 1961.1072,-44.444965 L 1955.4289,-47.652078 L 1928.7726,-25.768835 z M 2074.9193,17.24334 L 2075.5232,17.24334 L 2075.1833,16.677454 L 1978.0666,-48.595315 L 1970.6903,-44.444965 L 2074.9193,17.24334 z M 1964.8047,-161.40779 L 1964.5407,-161.78503 L 1964.2574,-161.40779 L 1957.5039,-52.179667 L 1963.5221,-48.595315 L 1964.8047,-161.40779 z M 2066.072,-162.35103 L 2066.2794,-161.78503 C 2074.1835,-154.42768 2081.6728,-146.50438 2088.4457,-138.0152 C 2109.5368,-111.60421 2120.5346,-78.21326 2120.5346,-44.444965 C 2120.5346,-17.845486 2113.4229,7.8109238 2100.7078,31.014809 L 2102.4434,34.221756 L 2098.8213,34.410348 C 2071.0333,80.818228 2019.9848,110.05893 1965.8045,110.05893 C 1911.5487,110.05893 1860.7837,81.00682 1832.9762,34.410348 L 1829.562,34.221756 L 1830.9766,31.014809 C 1822.8651,16.111401 1817.2994,0.26486886 1814.0172,-16.336252 L 1813.6967,-16.713602 L 1813.4888,-16.147605 C 1815.6397,1.3968076 1821.186,18.563926 1829.562,34.221756 C 1856.897,85.534409 1907.87,115.71835 1965.8799,115.71835 C 2053.9413,115.71835 2125.7604,43.46558 2125.7604,-44.444965 C 2125.7604,-89.532315 2102.5188,-134.99679 2066.6187,-162.35103 L 2066.072,-162.35103 z M 1963.2576,-195.36457 C 1881.2143,-193.85545 1814.9605,-126.8848 1814.9605,-44.444965 C 1814.9605,-18.788722 1821.9967,5.9244517 1833.6555,28.562339 L 1938.337,-57.273197 L 1946.9209,-52.368259 L 1832.5803,31.580639 L 1832.1084,32.712578 L 1833.3915,32.712578 L 1963.3901,-40.483429 L 1963.1256,-14.261133 L 1836.3909,33.27852 C 1863.2546,78.365759 1913.4163,106.28582 1965.8045,106.28582 C 2018.4566,106.28582 2067.9584,78.365759 2095.1426,33.27852 L 1968.4834,-14.261133 L 1968.144,-40.483429 L 2098.5008,32.712578 L 2099.6325,32.712578 L 2099.1041,31.769287 L 1984.6886,-52.368259 L 1993.1966,-57.273197 L 2097.9535,28.562339 C 2109.9516,6.1130435 2116.837,-18.788722 2116.837,-44.444965 C 2116.837,-127.63944 2050.8665,-192.91221 1968.5588,-195.55327 L 1990.5177,-61.800786 L 1968.0874,-48.595315 L 1966.4649,-198.00568 L 1965.8045,-198.76027 L 1965.2006,-198.00568 L 1949.3918,-57.084606 L 1940.9593,-61.800786 L 1963.2576,-195.36457 z M 1859.1046,78.365759 C 1826.6187,45.729402 1807.9236,1.9626938 1807.9236,-44.444965 C 1807.9236,-131.41238 1878.856,-202.34463 1965.8045,-202.34463 C 2041.9621,-202.34463 2106.8579,-147.25903 2125.8923,-75.006147 L 2126.2888,-74.817555 L 2126.4962,-75.19496 C 2111.2907,-151.59797 2044.245,-207.81539 1965.8045,-207.81539 C 1875.9886,-207.81539 1802.3773,-134.24209 1802.3773,-44.444965 C 1802.3773,2.9059299 1823.4119,47.615875 1858.7647,78.931756 L 1859.2365,78.931756 L 1859.1046,78.365759"
         style="fill:#231f20;fill-rule:nonzero;stroke:none"
         id="path9979" />
    </g>
  </g>
</svg>
