<svg width="83" height="59" viewBox="0 0 83 59" fill="none" xmlns="http://www.w3.org/2000/svg">
<path d="M20.75 59C15.028 59 10.1392 57.0641 6.08352 53.1922C2.02784 49.3203 0 44.588 0 38.9953C0 34.2016 1.47765 29.9302 4.43295 26.1812C7.38826 22.4323 11.2553 20.0354 16.0341 18.9906C17.6061 13.3365 20.75 8.75781 25.4659 5.25469C30.1818 1.75156 35.5265 0 41.5 0C48.8568 0 55.0975 2.50443 60.2222 7.51328C65.3468 12.5221 67.9091 18.6219 67.9091 25.8125C72.2477 26.3042 75.8475 28.1326 78.7085 31.2977C81.5695 34.4628 83 38.1656 83 42.4062C83 47.0156 81.3494 50.9336 78.0483 54.1602C74.7472 57.3867 70.7386 59 66.0227 59H45.2727C43.1977 59 41.4214 58.2779 39.9437 56.8336C38.4661 55.3893 37.7273 53.6531 37.7273 51.625V32.6344L31.6909 38.35L26.4091 33.1875L41.5 18.4375L56.5909 33.1875L51.3091 38.35L45.2727 32.6344V51.625H66.0227C68.6636 51.625 70.8958 50.7339 72.7193 48.9516C74.5428 47.1693 75.4545 44.9875 75.4545 42.4062C75.4545 39.825 74.5428 37.6432 72.7193 35.8609C70.8958 34.0786 68.6636 33.1875 66.0227 33.1875H60.3636V25.8125C60.3636 20.7115 58.5244 16.3633 54.846 12.768C51.1676 9.17266 46.7189 7.375 41.5 7.375C36.2811 7.375 31.8324 9.17266 28.154 12.768C24.4756 16.3633 22.6364 20.7115 22.6364 25.8125H20.75C17.103 25.8125 13.9905 27.0724 11.4125 29.5922C8.83447 32.112 7.54545 35.1542 7.54545 38.7188C7.54545 42.2833 8.83447 45.3255 11.4125 47.8453C13.9905 50.3651 17.103 51.625 20.75 51.625H30.1818V59H20.75Z" fill="white"/>
</svg>
